# xmcd
#
# Track frame offsets:
#	150
#	12449
#	25495
#	40569
#	57104
#	75245
#	89119
#	110467
#	129105
#	144066
#	159003
#	172461
#	186959
#	205756
#	220373
#	237445
#	259881
#	274727
#	291248
#
# Disc length: 4092
#
# Revision: 1
# Processed by: cddbd v1.5.1PL0 Copyright (c) Steve Scherf et al.
# Submitted via: EasyCDDAExtractor 4.6.9.1
# Normalized: r0:TDELIM( - )
#
DISCID=0b0ffa13
DTITLE=Various Artist - New Country 9
DYEAR=2002
DGENRE=Country
TTITLE0=Toby Keith - I'm Just Talking About Tonight
TTITLE1=Emerson Drive - I Should Be Sleeping
TTITLE2=Trich Pony - Just What I do
TTITLE3=Trisha Yearwood - I Would've Loved You Anyway
TTITLE4=Jimmy Rankin - Followed Her Around
TTITLE5=Reba McEntire - I'm A Survivor
TTITLE6=Trace Adkins - I'm Tryin'
TTITLE7=Ennis Sisters - I'd Never Walk Away
TTITLE8=Cindy Thompson - What I Really Meant to Say
TTITLE9=Chris Cummings - Cowboy Hats
TTITLE10=Keith Urban - Where The Blacktop Ends
TTITLE11=Jason McCoy - Ten Million Teardrops
TTITLE12=Terri Clark - Empty
TTITLE13=Blake Shelton - All Over Me
TTITLE14=Chris Cagle - Laredo
TTITLE15=Rebecca Lynn Howard - I Don't Paint Myself Into Corners
TTITLE16=Steve Azar - I Don't Have To Be Me
TTITLE17=Joe Nichols - Can't Hold A Halo Over You
TTITLE18=Doc Walker - She Hasn't Always Been This Way
EXTD=
EXTT0=
EXTT1=
EXTT2=
EXTT3=
EXTT4=
EXTT5=
EXTT6=
EXTT7=
EXTT8=
EXTT9=
EXTT10=
EXTT11=
EXTT12=
EXTT13=
EXTT14=
EXTT15=
EXTT16=
EXTT17=
EXTT18=
PLAYORDER=
